<svg version="1.1" xmlns="http://www.w3.org/2000/svg" xmlns:xlink="http://www.w3.org/1999/xlink" viewBox="0 0 172 172"><g fill="none" fill-rule="nonzero" stroke="none" stroke-width="1" stroke-linecap="butt" stroke-linejoin="miter" stroke-miterlimit="10" stroke-dasharray="" stroke-dashoffset="0" font-family="none" font-weight="none" font-size="none" text-anchor="none" style="mix-blend-mode: normal"><path d="M0,172v-172h172v172z" fill="none"></path><g fill="#333333"><path d="M65.36,17.2c-5.65719,0 -10.32,4.66281 -10.32,10.32v10.32h-44.72c-5.65719,0 -10.32,4.66281 -10.32,10.32v19.565c-0.20156,0.67188 -0.20156,1.37063 0,2.0425v74.7125c0,5.65719 4.66281,10.32 10.32,10.32h151.36c5.65719,0 10.32,-4.66281 10.32,-10.32v-75.035c0.09406,-0.45687 0.09406,-0.94062 0,-1.3975v-19.8875c0,-5.65719 -4.66281,-10.32 -10.32,-10.32h-44.72v-10.32c0,-5.65719 -4.66281,-10.32 -10.32,-10.32zM65.36,24.08h41.28c1.935,0 3.44,1.505 3.44,3.44v10.32h-48.16v-10.32c0,-1.935 1.505,-3.44 3.44,-3.44zM10.32,44.72h151.36c1.935,0 3.44,1.505 3.44,3.44v17.2h-13.76c0,-3.7625 -3.1175,-6.88 -6.88,-6.88h-13.76c-3.7625,0 -6.88,3.1175 -6.88,6.88h-75.68c0,-3.7625 -3.1175,-6.88 -6.88,-6.88h-13.76c-3.7625,0 -6.88,3.1175 -6.88,6.88h-13.76v-17.2c0,-1.935 1.505,-3.44 3.44,-3.44zM27.52,65.36h13.76v1.8275c-0.45687,0.95406 -0.45687,2.05594 0,3.01v2.0425h-13.76v-2.795c0.09406,-0.45687 0.09406,-0.94062 0,-1.3975zM130.72,65.36h13.76v1.8275c-0.45687,0.95406 -0.45687,2.05594 0,3.01v2.0425h-13.76v-2.795c0.09406,-0.45687 0.09406,-0.94062 0,-1.3975zM6.88,72.24h13.76c0,3.7625 3.1175,6.88 6.88,6.88h13.76c3.7625,0 6.88,-3.1175 6.88,-6.88h75.68c0,3.7625 3.1175,6.88 6.88,6.88h13.76c3.7625,0 6.88,-3.1175 6.88,-6.88h13.76v72.24c0,1.935 -1.505,3.44 -3.44,3.44h-151.36c-1.935,0 -3.44,-1.505 -3.44,-3.44zM79.12,86v13.76h-13.76v13.76h13.76v13.76h13.76v-13.76h13.76v-13.76h-13.76v-13.76z"></path></g></g></svg>